<svg width="128" height="128" fill="none" xmlns="http://www.w3.org/2000/svg"><g clip-path="url(#clip0)"><rect width="128" height="128" rx="60" fill="#222"/><path d="M56.61 81.188H28.015L21.594 99h-9.282l26.063-68.25h7.875L72.36 99h-9.235l-6.516-17.813zM30.733 73.78h23.203L42.313 41.86 30.733 73.781z" fill="#fff"/><path d="M88.953 71.39H72.922V99h-9.047V30.75h22.594c7.687 0 13.593 1.75 17.719 5.25 4.156 3.5 6.234 8.594 6.234 15.281 0 4.25-1.156 7.953-3.469 11.11-2.281 3.156-5.469 5.515-9.562 7.078l16.031 28.969V99h-9.656L88.953 71.39zm-16.031-7.359H86.75c4.469 0 8.016-1.156 10.64-3.469 2.657-2.312 3.985-5.406 3.985-9.28 0-4.22-1.266-7.454-3.797-9.704-2.5-2.25-6.125-3.39-10.875-3.422H72.922v25.875z" fill="#fff"/></g><defs><clipPath id="clip0"><path fill="#fff" d="M0 0h128v128H0z"/></clipPath></defs></svg>